# Blender 3.5.0
# www.blender.org
mtllib arrow.mtl
o R/GA_Arrows_1
v -0.653295 0.607338 -0.076312
v -0.653295 0.607338 -0.076312
v -0.653295 0.607338 -0.076312
v -0.653295 0.607338 0.076311
v -0.653295 0.607338 0.076311
v -0.653295 0.607338 0.076311
v -0.548402 0.518745 -0.076312
v -0.548402 0.518745 -0.076312
v -0.548402 0.518745 -0.076312
v -0.548402 0.518746 0.076311
v -0.548402 0.518746 0.076311
v -0.548402 0.518746 0.076311
v -0.522636 0.557899 0.076311
v -0.403535 0.396392 -0.076312
v -0.403535 0.396392 -0.076312
v -0.403535 0.396392 -0.076312
v -0.403535 0.396392 0.076311
v -0.403535 0.396392 0.076311
v -0.403535 0.396392 0.076311
v -0.323054 0.328418 -0.076312
v -0.323054 0.328418 -0.076312
v -0.323054 0.328418 -0.076312
v -0.323054 0.328418 0.076311
v -0.323054 0.328418 0.076311
v -0.323054 0.328418 0.076311
v -0.261318 0.459022 0.076311
v -0.242290 0.191993 -0.076311
v -0.242290 0.297859 0.076311
v -0.242121 0.123733 -0.076311
v -0.242121 0.335317 0.076311
v -0.219360 0.394244 0.076311
v -0.161414 0.304779 0.076311
v 0.000000 0.360145 -0.076312
v 0.000000 0.360145 -0.076312
v 0.000000 0.360145 -0.076312
v 0.000000 0.311242 -0.076312
v 0.000000 0.311242 -0.076312
v 0.000000 0.311242 -0.076312
v 0.000000 0.243703 -0.076312
v 0.000000 0.243703 -0.076312
v 0.000000 0.243703 -0.076312
v 0.000000 0.206181 -0.076311
v 0.000000 0.206181 -0.076311
v 0.000000 0.206181 -0.076311
v 0.000000 -0.217282 -0.076311
v 0.000000 -0.217282 -0.076311
v 0.000000 -0.217282 -0.076311
v 0.000000 -0.285256 -0.076311
v 0.000000 -0.285256 -0.076311
v 0.000000 -0.285256 -0.076311
v 0.000000 -0.407609 -0.076311
v 0.000000 -0.407609 -0.076311
v 0.000000 -0.407609 -0.076311
v 0.000000 -0.496201 -0.076311
v 0.000000 -0.496201 -0.076311
v 0.000000 -0.496201 -0.076311
v 0.000000 0.360145 0.076311
v 0.000000 0.360145 0.076311
v 0.000000 0.360145 0.076311
v 0.000000 0.311242 0.076311
v 0.000000 0.311242 0.076311
v 0.000000 0.311242 0.076311
v 0.000000 0.243703 0.076311
v 0.000000 0.243703 0.076311
v 0.000000 0.243703 0.076311
v 0.000000 0.206181 0.076311
v 0.000000 0.206181 0.076311
v 0.000000 0.206181 0.076311
v 0.000000 -0.217282 0.076312
v 0.000000 -0.217282 0.076312
v 0.000000 -0.217282 0.076312
v 0.000000 -0.285256 0.076312
v 0.000000 -0.285256 0.076312
v 0.000000 -0.285256 0.076312
v 0.000000 -0.407609 0.076312
v 0.000000 -0.407609 0.076312
v 0.000000 -0.407609 0.076312
v 0.000000 -0.496201 0.076312
v 0.000000 -0.496201 0.076312
v 0.000000 -0.496201 0.076312
v 0.201909 0.123780 -0.076311
v 0.242122 0.123733 -0.076311
v 0.323055 0.328418 -0.076312
v 0.323055 0.328418 -0.076312
v 0.323055 0.328418 -0.076312
v 0.323055 0.328418 0.076311
v 0.323055 0.328418 0.076311
v 0.323055 0.328418 0.076311
v 0.326648 0.055568 -0.076311
v 0.342752 0.171362 -0.076311
v 0.403536 0.396392 -0.076312
v 0.403536 0.396392 -0.076312
v 0.403536 0.396392 -0.076312
v 0.403536 0.396392 0.076311
v 0.403536 0.396392 0.076311
v 0.403536 0.396392 0.076311
v 0.522636 0.557899 -0.076312
v 0.548403 0.518745 -0.076312
v 0.548403 0.518745 -0.076312
v 0.548403 0.518745 -0.076312
v 0.548403 0.518746 0.076311
v 0.548403 0.518746 0.076311
v 0.548403 0.518746 0.076311
v 0.653295 0.607338 -0.076312
v 0.653295 0.607338 -0.076312
v 0.653295 0.607338 -0.076312
v 0.653295 0.607338 0.076311
v 0.653295 0.607338 0.076311
v 0.653295 0.607338 0.076311
vn -0.0000 -0.0000 1.0000
vn -0.0000 -0.0000 -1.0000
vn 0.3539 -0.9353 -0.0000
vn 0.8605 -0.5094 -0.0000
vn -0.3539 0.9353 -0.0000
vn -0.8605 0.5094 -0.0000
vn -0.8605 -0.5094 -0.0000
vn -0.3539 -0.9353 -0.0000
vn 0.3539 0.9353 -0.0000
vn 0.8605 0.5094 -0.0000
vt 0.563786 0.617122
vt 0.994904 0.579988
vt 0.128114 0.422084
vt 0.563786 0.743771
vt 0.623018 0.197095
vt 0.254764 0.422084
vt 0.126649 0.425520
vt 0.980326 0.622036
vt 0.128114 1.000000
vt 0.000000 0.425520
vt 0.608441 0.238999
vt 0.000000 1.000000
vt 0.594837 0.232352
vt 0.368347 0.269068
vt 0.370580 0.996771
vt 0.674120 0.634037
vt 0.368347 0.452782
vt 0.995320 0.261992
vt 0.674120 0.816286
vt 0.375714 0.816286
vt 0.324497 0.980669
vt 0.669133 0.261002
vt 0.559428 0.816286
vt 0.979290 0.308076
vt 0.669133 0.444715
vt 0.538475 0.302867
vt 0.251063 0.980669
vt 0.954323 0.339313
vt 0.223816 0.996771
vt 0.945422 0.324423
vt 0.537472 0.327787
vt 0.920473 0.355639
vt 0.000000 0.422084
vt 0.853998 0.756885
vt 0.128114 0.195580
vt 0.126649 0.615657
vt 0.862045 0.770531
vt 0.254764 0.425520
vt 0.674120 0.817751
vt 0.214503 0.871469
vt 0.874748 0.634037
vt 0.375714 0.655671
vt 0.199547 0.880357
vt 0.375714 1.000000
vt 0.669133 0.448859
vt 0.030762 0.980669
vt 0.375714 0.261002
vt 0.000000 0.269068
vt 0.003669 0.996771
vt 0.368347 0.464992
vt 0.147932 1.000000
vt 0.980326 0.971121
vt 0.128114 0.650916
vt 0.147932 0.617122
vt 0.994904 0.995841
vt 0.563786 0.745236
vt 0.126649 0.422084
vt 0.482113 0.373381
vt 0.254764 0.195580
vt 0.000000 0.615657
vt 0.490159 0.386980
vt 0.128114 0.425520
vt 0.674120 1.000000
vt 0.870575 0.418070
vt 0.874748 0.816286
vt 0.559428 0.655671
vt 0.879424 0.433025
vt 0.559428 1.000000
vt 0.669133 0.632572
vt 0.979290 0.601810
vt 0.375714 0.444715
vt 0.000000 0.452782
vt 0.995320 0.628903
vt 0.368347 0.648706
vt 0.147932 0.873351
vt 0.608441 0.586877
vt 0.000000 0.650916
vt 0.147932 0.743771
vt 0.623018 0.611513
vt 0.563786 0.871886
vt 0.119061 0.819084
vt 0.109554 0.803005
vt 0.375714 0.448859
vt 0.172040 0.722133
vt 0.375714 0.839385
vt 0.375714 0.632572
vt 0.721904 0.460532
vt 0.559428 0.839385
vt 0.813325 0.895834
vt 0.789796 0.866183
vt 0.874748 0.817751
vt 0.180143 0.673827
vt 0.000000 0.464992
vt 0.874748 1.000000
vt 0.673813 0.452429
vt 0.000000 0.648706
vt 0.676196 0.788039
vt 0.497017 1.000000
vt 0.675477 0.803221
vt 0.254764 0.615657
vt 0.497017 0.873351
vt 0.303592 0.419557
vt 0.128114 0.615657
vt 0.000000 0.195580
vt 0.631746 0.795827
vt 0.147932 0.745236
vt 0.126649 0.195580
vt 0.259860 0.412189
vt 0.147932 0.871886
s 0
usemtl material_0
f 73/73/1 95/95/1 87/87/1
f 28/28/1 30/30/1 24/24/1
f 76/76/1 79/79/1 108/108/1
f 8/8/2 55/55/2 2/2/2
s 1
f 100/100/3 62/62/3 38/38/3
f 96/96/4 50/50/4 93/93/4
f 33/33/5 107/107/5 104/104/5
s 0
f 99/99/2 105/105/2 89/89/2
s 1
f 98/98/6 75/75/6 101/101/6
f 78/78/7 1/1/7 54/54/7
f 10/10/8 36/36/8 60/60/8
f 16/16/9 65/65/9 41/41/9
f 9/9/10 77/77/10 53/53/10
f 63/63/5 91/91/5 39/39/5
s 0
f 21/21/2 40/40/2 43/43/2
s 1
f 14/14/7 72/72/7 17/17/7
f 80/80/4 106/106/4 109/109/4
f 25/25/10 47/47/10 22/22/10
f 66/66/8 20/20/8 42/42/8
s 0
f 49/49/2 27/27/2 46/46/2
s 1
f 68/68/3 85/85/3 88/88/3
f 45/45/6 86/86/6 83/83/6
s 0
f 26/26/1 11/11/1 31/31/1
s 1
f 3/3/9 59/59/9 35/35/9
s 0
f 64/64/1 32/32/1 28/28/1
f 24/24/1 30/30/1 18/18/1
f 64/64/1 28/28/1 67/67/1
f 64/64/1 67/67/1 87/87/1
f 24/24/1 18/18/1 73/73/1
f 70/70/1 24/24/1 73/73/1
f 95/95/1 64/64/1 87/87/1
f 87/87/1 70/70/1 73/73/1
f 28/28/1 32/32/1 30/30/1
f 26/26/1 31/31/1 61/61/1
f 58/58/1 26/26/1 61/61/1
f 11/11/1 13/13/1 5/5/1
f 76/76/1 11/11/1 5/5/1
f 108/108/1 58/58/1 61/61/1
f 108/108/1 61/61/1 102/102/1
f 76/76/1 5/5/1 79/79/1
f 108/108/1 102/102/1 76/76/1
f 34/34/2 97/97/2 99/99/2
f 52/52/2 90/90/2 89/89/2
f 34/34/2 99/99/2 37/37/2
f 34/34/2 37/37/2 8/8/2
f 52/52/2 89/89/2 55/55/2
f 2/2/2 34/34/2 8/8/2
f 8/8/2 52/52/2 55/55/2
s 1
f 100/100/3 103/103/3 62/62/3
f 96/96/4 74/74/4 50/50/4
f 33/33/5 57/57/5 107/107/5
s 0
f 89/89/2 90/90/2 99/99/2
f 99/99/2 97/97/2 105/105/2
s 1
f 98/98/6 51/51/6 75/75/6
f 78/78/7 4/4/7 1/1/7
f 10/10/8 7/7/8 36/36/8
f 16/16/9 19/19/9 65/65/9
f 9/9/10 12/12/10 77/77/10
f 63/63/5 94/94/5 91/91/5
s 0
f 21/21/2 27/27/2 29/29/2
f 92/92/2 82/82/2 81/81/2
f 92/92/2 81/81/2 84/84/2
f 40/40/2 92/92/2 84/84/2
f 21/21/2 29/29/2 15/15/2
f 40/40/2 84/84/2 43/43/2
f 21/21/2 15/15/2 40/40/2
s 1
f 14/14/7 48/48/7 72/72/7
f 80/80/4 56/56/4 106/106/4
f 25/25/10 71/71/10 47/47/10
f 66/66/8 23/23/8 20/20/8
s 0
f 46/46/2 81/81/2 82/82/2
f 49/49/2 29/29/2 27/27/2
f 46/46/2 82/82/2 49/49/2
s 1
f 68/68/3 44/44/3 85/85/3
f 45/45/6 69/69/6 86/86/6
s 0
f 26/26/1 13/13/1 11/11/1
s 1
f 3/3/9 6/6/9 59/59/9
