# Blender 3.5.0
# www.blender.org
mtllib BackRightWheel.mtl
o Back_Right_Wheel
v -0.191358 -0.200027 -0.247656
v -0.191358 -0.226536 -0.268797
v -0.191358 -0.241247 -0.299345
v -0.191358 -0.241247 -0.333251
v -0.191358 -0.226536 -0.363800
v -0.191358 -0.200027 -0.384940
v -0.191358 -0.166971 -0.392485
v -0.191358 -0.133915 -0.384940
v -0.191358 -0.107406 -0.363800
v -0.191358 -0.092694 -0.333251
v -0.191358 -0.092694 -0.299345
v -0.191358 -0.107406 -0.268797
v -0.191358 -0.133915 -0.247656
v -0.191358 -0.166971 -0.240112
v -0.155721 -0.200027 -0.247656
v -0.155721 -0.226536 -0.268797
v -0.155721 -0.166971 -0.240112
v -0.155721 -0.241247 -0.299345
v -0.155721 -0.241247 -0.333251
v -0.155721 -0.226536 -0.363800
v -0.155721 -0.200027 -0.384940
v -0.155721 -0.166971 -0.392485
v -0.155721 -0.133915 -0.384940
v -0.155721 -0.107406 -0.363800
v -0.155721 -0.092694 -0.333251
v -0.155721 -0.092694 -0.299345
v -0.155721 -0.107406 -0.268797
v -0.155721 -0.133915 -0.247656
vn -0.0000 -0.9010 0.4339
vn -0.0000 -1.0000 -0.0000
vn -0.0000 -0.9010 -0.4339
vn -0.0000 -0.6235 -0.7818
vn -0.0000 0.2225 -0.9749
vn 1.0000 -0.0000 -0.0000
vn -0.0000 -0.2225 -0.9749
vn -1.0000 -0.0000 -0.0000
vn -0.0000 0.6235 -0.7818
vn -0.0000 0.9010 -0.4339
vn -0.0000 1.0000 -0.0000
vn -0.0000 0.9010 0.4339
vn -0.0000 0.6235 0.7818
vn -0.0000 0.2225 0.9749
vn -0.0000 -0.2225 0.9749
vn -0.0000 -0.6235 0.7818
vt 0.479323 0.469748
vt 0.475445 0.404486
vt 0.474653 0.556395
vt 0.481738 0.469760
vt 0.474710 0.545544
vt 0.474766 0.534694
vt 0.483907 0.470819
vt 0.474823 0.523843
vt 0.485403 0.472715
vt 0.474880 0.512992
vt 0.485928 0.475072
vt 0.474936 0.502142
vt 0.485379 0.477423
vt 0.474993 0.491291
vt 0.483863 0.479303
vt 0.481682 0.480339
vt 0.475049 0.480440
vt 0.479268 0.480326
vt 0.475106 0.469590
vt 0.477098 0.479267
vt 0.475162 0.458739
vt 0.475602 0.477372
vt 0.475219 0.447889
vt 0.475077 0.475015
vt 0.475275 0.437038
vt 0.475627 0.472664
vt 0.475332 0.426187
vt 0.477142 0.470784
vt 0.475388 0.415337
vt 0.483907 0.470819
vt 0.486296 0.404543
vt 0.485504 0.556451
vt 0.485561 0.545601
vt 0.481738 0.469760
vt 0.485403 0.472715
vt 0.486239 0.415393
vt 0.485617 0.534750
vt 0.479323 0.469748
vt 0.485674 0.523899
vt 0.477142 0.470784
vt 0.485730 0.513049
vt 0.475627 0.472664
vt 0.475077 0.475015
vt 0.485787 0.502198
vt 0.485843 0.491348
vt 0.475602 0.477372
vt 0.477098 0.479267
vt 0.485900 0.480497
vt 0.479268 0.480326
vt 0.485956 0.469646
vt 0.481682 0.480339
vt 0.486013 0.458796
vt 0.483863 0.479303
vt 0.486069 0.447945
vt 0.485379 0.477423
vt 0.486126 0.437095
vt 0.485928 0.475072
vt 0.486182 0.426244
s 0
usemtl Wheels
f 16/33/1 3/6/1 18/37/1
f 18/37/2 4/8/2 19/39/2
f 19/39/3 5/10/3 20/41/3
f 20/41/4 6/12/4 21/44/4
f 22/45/5 8/17/5 23/48/5
f 24/49/6 28/57/6 18/38/6
f 21/44/7 7/14/7 22/45/7
f 9/18/8 5/11/8 1/1/8
f 23/48/9 9/19/9 24/50/9
f 24/50/10 10/21/10 25/52/10
f 25/52/11 11/23/11 26/54/11
f 26/54/12 12/25/12 27/56/12
f 27/56/13 13/27/13 28/58/13
f 14/29/14 28/58/14 13/27/14
f 14/29/15 15/31/15 17/36/15
f 15/32/16 2/5/16 16/33/16
f 16/33/1 2/5/1 3/6/1
f 18/37/2 3/6/2 4/8/2
f 19/39/3 4/8/3 5/10/3
f 20/41/4 5/10/4 6/12/4
f 22/45/5 7/14/5 8/17/5
f 20/42/6 21/43/6 22/46/6
f 22/46/6 23/47/6 24/49/6
f 24/49/6 25/51/6 26/53/6
f 26/53/6 27/55/6 28/57/6
f 28/57/6 17/35/6 15/30/6
f 15/30/6 16/34/6 18/38/6
f 18/38/6 19/40/6 20/42/6
f 20/42/6 22/46/6 24/49/6
f 24/49/6 26/53/6 28/57/6
f 28/57/6 15/30/6 18/38/6
f 18/38/6 20/42/6 24/49/6
f 21/44/7 6/12/7 7/14/7
f 13/26/8 12/24/8 11/22/8
f 11/22/8 10/20/8 9/18/8
f 9/18/8 8/16/8 7/15/8
f 7/15/8 6/13/8 5/11/8
f 5/11/8 4/9/8 3/7/8
f 3/7/8 2/4/8 1/1/8
f 1/1/8 14/28/8 13/26/8
f 13/26/8 11/22/8 9/18/8
f 9/18/8 7/15/8 5/11/8
f 5/11/8 3/7/8 1/1/8
f 1/1/8 13/26/8 9/18/8
f 23/48/9 8/17/9 9/19/9
f 24/50/10 9/19/10 10/21/10
f 25/52/11 10/21/11 11/23/11
f 26/54/12 11/23/12 12/25/12
f 27/56/13 12/25/13 13/27/13
f 14/29/14 17/36/14 28/58/14
f 14/29/15 1/2/15 15/31/15
f 15/32/16 1/3/16 2/5/16
