# Blender v2.83.19 OBJ File: 'myRoad.blend'
# www.blender.org
v -92.407082 110.000031 24.816648
v -92.393532 110.000031 84.816658
v 27.606499 110.000015 84.789551
v 27.592949 110.000015 24.789549
v -92.407104 0.000008 24.816654
v -92.393555 0.000008 84.816650
v -92.393532 110.000031 84.816658
v -92.407082 110.000031 24.816648
v -92.393555 0.000008 84.816650
v 27.606480 -0.000008 84.789551
v 27.606499 110.000015 84.789551
v -92.393532 110.000031 84.816658
v 27.606480 -0.000008 84.789551
v 27.592926 -0.000008 24.789549
v 27.592949 110.000015 24.789549
v 27.606499 110.000015 84.789551
v 27.592926 -0.000008 24.789549
v -92.407104 0.000008 24.816654
v -92.407082 110.000031 24.816648
v 27.592949 110.000015 24.789549
vt 0.773841 0.350375
vt 0.975876 0.350375
vt 0.975876 0.016041
vt 0.773841 0.016041
vt 0.699869 0.925540
vt 0.975429 0.925540
vt 0.975429 0.385516
vt 0.699869 0.385516
vt 0.639906 0.457491
vt 0.041028 0.457491
vt 0.041028 0.023524
vt 0.639906 0.023524
vt 0.974116 0.925231
vt 0.699748 0.925231
vt 0.700606 0.385835
vt 0.974975 0.385835
vt 0.038939 0.934601
vt 0.643895 0.934601
vt 0.643895 0.478840
vt 0.038939 0.478840
vn 0.0000 1.0000 0.0000
vn -1.0000 0.0000 0.0002
vn 0.0002 -0.0000 1.0000
vn 1.0000 -0.0000 -0.0002
vn -0.0002 -0.0000 -1.0000
s 1
f 1/1/1 2/2/1 3/3/1
f 1/1/1 3/3/1 4/4/1
f 5/5/2 6/6/2 7/7/2
f 5/5/2 7/7/2 8/8/2
f 9/9/3 10/10/3 11/11/3
f 9/9/3 11/11/3 12/12/3
f 13/13/4 14/14/4 15/15/4
f 13/13/4 15/15/4 16/16/4
f 17/17/5 18/18/5 19/19/5
f 17/17/5 19/19/5 20/20/5
