# Blender 3.5.0
# www.blender.org
mtllib Building2.mtl
o low_poly_multi_storied_building
v -29.608742 0.000018 64.173454
v -29.608742 0.000018 64.173454
v -29.608742 110.000038 64.173416
v -29.608742 110.000038 64.173416
v -29.608742 110.000038 64.173416
v -29.608742 -0.000018 -55.826576
v -29.608742 -0.000018 -55.826576
v -29.608742 110.000008 -55.826614
v -29.608742 110.000008 -55.826614
v -29.608742 110.000008 -55.826614
v 30.391258 0.000018 64.173454
v 30.391258 0.000018 64.173454
v 30.391258 110.000038 64.173416
v 30.391258 110.000038 64.173416
v 30.391258 110.000038 64.173416
v 30.391258 -0.000018 -55.826576
v 30.391258 -0.000018 -55.826576
v 30.391258 110.000008 -55.826614
v 30.391258 110.000008 -55.826614
v 30.391258 110.000008 -55.826614
vn -0.0000 1.0000 -0.0000
vn -0.0000 -0.0000 1.0000
vn 1.0000 -0.0000 -0.0000
vn -0.0000 -0.0000 -1.0000
vn -1.0000 -0.0000 -0.0000
vt 0.643895 0.934601
vt 0.699869 0.925540
vt 0.643895 0.478840
vt 0.699869 0.385516
vt 0.773841 0.350375
vt 0.038939 0.934601
vt 0.699748 0.925231
vt 0.038939 0.478840
vt 0.773841 0.016041
vt 0.700606 0.385835
vt 0.975429 0.925540
vt 0.639906 0.457491
vt 0.975429 0.385516
vt 0.975876 0.350375
vt 0.639906 0.023524
vt 0.974116 0.925231
vt 0.041028 0.457491
vt 0.975876 0.016041
vt 0.974975 0.385835
vt 0.041028 0.023524
s 0
usemtl Material_25
f 5/5/1 14/14/1 18/18/1
f 5/5/1 18/18/1 9/9/1
f 2/2/2 11/11/2 13/13/2
f 2/2/2 13/13/2 4/4/2
f 12/12/3 17/17/3 20/20/3
f 12/12/3 20/20/3 15/15/3
f 16/16/4 7/7/4 10/10/4
f 16/16/4 10/10/4 19/19/4
f 6/6/5 1/1/5 3/3/5
f 6/6/5 3/3/5 8/8/5
