# Blender 3.5.0
# www.blender.org
mtllib Building3.mtl
o building_3
v -33.848244 0.000006 25.608061
v -33.848244 0.000006 25.608061
v -33.848244 110.000031 25.608028
v -33.848244 110.000031 25.608028
v -33.848244 110.000031 25.608028
v -33.848244 -0.000006 -14.391947
v -33.848244 -0.000006 -14.391947
v -33.848244 110.000015 -14.391979
v -33.848244 110.000015 -14.391979
v -33.848244 110.000015 -14.391979
v -15.098243 0.000012 45.608063
v -15.098243 0.000012 45.608063
v -15.098243 110.000038 45.608028
v -15.098243 110.000038 45.608028
v -15.098243 110.000038 45.608028
v -15.098243 0.000006 25.608061
v -15.098243 0.000006 25.608061
v -15.098243 110.000031 25.608028
v -15.098243 110.000031 25.608028
v -15.098243 110.000031 25.608028
v -15.098243 -0.000006 -14.391947
v -15.098243 110.000015 -14.391979
v -15.098243 110.000015 -14.391979
v 3.651757 0.000012 45.608063
v 3.651757 110.000038 45.608028
v 3.651757 110.000038 45.608028
v 3.651757 110.000031 25.608028
v 3.651757 -0.000006 -14.391947
v 3.651757 110.000015 -14.391979
v 3.651757 110.000015 -14.391979
v 22.401756 0.000012 45.608063
v 22.401756 0.000012 45.608063
v 22.401756 110.000038 45.608028
v 22.401756 110.000038 45.608028
v 22.401756 110.000038 45.608028
v 22.401756 0.000006 25.608061
v 22.401756 0.000006 25.608061
v 22.401756 110.000031 25.608028
v 22.401756 110.000031 25.608028
v 22.401756 110.000031 25.608028
v 22.401756 -0.000006 -14.391947
v 22.401756 110.000015 -14.391979
v 22.401756 110.000015 -14.391979
v 41.151756 0.000006 25.608061
v 41.151756 0.000006 25.608061
v 41.151756 110.000031 25.608028
v 41.151756 110.000031 25.608028
v 41.151756 110.000031 25.608028
v 41.151756 -0.000006 -14.391947
v 41.151756 -0.000006 -14.391947
v 41.151756 110.000015 -14.391979
v 41.151756 110.000015 -14.391979
v 41.151756 110.000015 -14.391979
vn -0.0000 -0.0000 1.0000
vn 1.0000 -0.0000 -0.0000
vn -1.0000 -0.0000 -0.0000
vn -0.0000 -0.0000 -1.0000
vn -0.0000 1.0000 -0.0000
vt 0.010579 0.213892
vt 0.159867 0.970927
vt 0.608091 0.213487
vt 0.159867 0.368470
vt 0.635818 0.343707
vt 0.010949 0.009292
vt 0.611305 0.986406
vt 0.609038 0.009418
vt 0.635818 0.027057
vt 0.611305 0.388089
vt 0.149992 0.968741
vt 0.249720 0.979783
vt 0.149992 0.369722
vt 0.249720 0.325431
vt 0.635749 0.342887
vt 0.045702 0.968741
vt 0.249272 0.970927
vt 0.045702 0.369722
vt 0.249272 0.368470
vt 0.718888 0.343707
vt 0.635749 0.028406
vt 0.698521 0.986406
vt 0.718888 0.027057
vt 0.692963 0.388089
vt 0.372614 0.979783
vt 0.372614 0.325431
vt 0.803120 0.342887
vt 0.801958 0.343707
vt 0.803120 0.028406
vt 0.777372 0.986406
vt 0.801958 0.027057
vt 0.773356 0.388089
vt 0.495507 0.979783
vt 0.150068 0.969005
vt 0.495507 0.325431
vt 0.970491 0.342887
vt 0.150068 0.369936
vt 0.496586 0.970533
vt 0.045392 0.969005
vt 0.496586 0.368464
vt 0.885027 0.343707
vt 0.970491 0.028406
vt 0.045392 0.369936
vt 0.856222 0.986406
vt 0.885027 0.027057
vt 0.853750 0.388089
vt 0.584374 0.970533
vt 0.010584 0.213794
vt 0.584374 0.368464
vt 0.968097 0.343707
vt 0.608838 0.213634
vt 0.934143 0.986406
vt 0.010962 0.009331
vt 0.968097 0.027057
vt 0.934143 0.388089
vt 0.609146 0.009606
s 0
usemtl Material_25
f 2/2/1 17/17/1 19/19/1
f 19/19/1 4/4/1 2/2/1
f 24/25/1 31/33/1 33/35/1
f 24/25/1 33/35/1 25/26/1
f 12/12/1 24/25/1 25/26/1
f 12/12/1 25/26/1 14/14/1
f 36/38/1 44/47/1 46/49/1
f 46/49/1 38/40/1 36/38/1
f 45/48/2 50/53/2 53/56/2
f 53/56/2 48/51/2 45/48/2
f 6/6/3 1/1/3 3/3/3
f 3/3/3 8/8/3 6/6/3
f 43/46/4 52/55/4 49/52/4
f 30/32/4 43/46/4 49/52/4
f 23/24/4 30/32/4 49/52/4
f 10/10/4 23/24/4 49/52/4
f 10/10/4 49/52/4 41/44/4
f 10/10/4 41/44/4 28/30/4
f 10/10/4 28/30/4 21/22/4
f 7/7/4 10/10/4 21/22/4
f 37/39/2 40/43/2 35/37/2
f 35/37/2 32/34/2 37/39/2
f 18/18/3 16/16/3 11/11/3
f 11/11/3 13/13/3 18/18/3
f 39/41/5 47/50/5 51/54/5
f 27/28/5 39/41/5 51/54/5
f 20/20/5 27/28/5 51/54/5
f 20/20/5 51/54/5 42/45/5
f 20/20/5 42/45/5 29/31/5
f 20/20/5 29/31/5 22/23/5
f 20/20/5 22/23/5 9/9/5
f 20/20/5 9/9/5 5/5/5
f 26/27/5 34/36/5 39/42/5
f 15/15/5 26/27/5 39/42/5
f 15/15/5 39/42/5 27/29/5
f 20/21/5 15/15/5 27/29/5
