# Blender 3.5.0
# www.blender.org
mtllib FrontLeftWheel.mtl
o Front_Left_Wheel
v 0.211502 -0.225476 0.250558
v 0.211502 -0.254837 0.273974
v 0.211502 -0.271131 0.307810
v 0.211502 -0.271131 0.345366
v 0.211502 -0.254837 0.379202
v 0.211502 -0.225476 0.402618
v 0.211502 -0.188864 0.410975
v 0.211502 -0.152251 0.402618
v 0.211502 -0.122890 0.379202
v 0.211502 -0.106596 0.345366
v 0.211502 -0.106596 0.307810
v 0.211502 -0.122890 0.273974
v 0.211502 -0.152251 0.250558
v 0.211502 -0.188864 0.242202
v 0.172113 -0.225476 0.250558
v 0.172113 -0.254837 0.273974
v 0.172113 -0.188864 0.242202
v 0.172113 -0.271131 0.307810
v 0.172113 -0.271131 0.345366
v 0.172113 -0.254837 0.379202
v 0.172113 -0.225476 0.402618
v 0.172113 -0.188864 0.410975
v 0.172113 -0.152251 0.402618
v 0.172113 -0.122890 0.379202
v 0.172113 -0.106596 0.345366
v 0.172113 -0.106596 0.307810
v 0.172113 -0.122890 0.273974
v 0.172113 -0.152251 0.250558
vn -0.0000 -0.9010 -0.4339
vn -0.0000 -1.0000 -0.0000
vn -0.0000 -0.9010 0.4339
vn -0.0000 -0.6235 0.7818
vn -0.0000 0.2225 0.9749
vn -1.0000 -0.0000 -0.0000
vn -0.0000 -0.2225 0.9749
vn 1.0000 -0.0000 -0.0000
vn -0.0000 0.6235 0.7818
vn -0.0000 0.9010 0.4339
vn -0.0000 1.0000 -0.0000
vn -0.0000 0.9010 -0.4339
vn -0.0000 0.6235 -0.7818
vn -0.0000 0.2225 -0.9749
vn -0.0000 -0.2225 -0.9749
vn -0.0000 -0.6235 -0.7818
vt 0.493543 0.467957
vt 0.359472 0.503042
vt 0.487304 0.455685
vt 0.361013 0.503212
vt 0.362555 0.503381
vt 0.340976 0.501009
vt 0.479792 0.448769
vt 0.342517 0.501178
vt 0.472976 0.448579
vt 0.344058 0.501348
vt 0.467975 0.455153
vt 0.345600 0.501517
vt 0.465179 0.467188
vt 0.347141 0.501687
vt 0.464623 0.482300
vt 0.466241 0.497498
vt 0.348682 0.501856
vt 0.469943 0.509770
vt 0.350224 0.502026
vt 0.475522 0.516685
vt 0.351765 0.502195
vt 0.482427 0.516875
vt 0.353306 0.502364
vt 0.489462 0.510302
vt 0.354848 0.502534
vt 0.494747 0.498267
vt 0.356389 0.502703
vt 0.496365 0.483154
vt 0.357930 0.502873
vt 0.352734 0.459625
vt 0.356109 0.503942
vt 0.357497 0.504111
vt 0.351417 0.448678
vt 0.353362 0.473182
vt 0.354722 0.503772
vt 0.358884 0.504281
vt 0.339463 0.501909
vt 0.349882 0.442509
vt 0.340850 0.502078
vt 0.348532 0.442339
vt 0.342237 0.502247
vt 0.347570 0.448203
vt 0.347052 0.458939
vt 0.343624 0.502417
vt 0.345012 0.502586
vt 0.346972 0.472421
vt 0.347313 0.485978
vt 0.346399 0.502756
vt 0.348058 0.496925
vt 0.347786 0.502925
vt 0.349173 0.503095
vt 0.350561 0.503264
vt 0.351986 0.497400
vt 0.351948 0.503433
vt 0.353059 0.486664
vt 0.353335 0.503603
s 0
usemtl Wheels
f 16/32/1 3/5/1 18/36/1
f 18/37/2 4/8/2 19/39/2
f 19/39/3 5/10/3 20/41/3
f 20/41/4 6/12/4 21/44/4
f 22/45/5 8/17/5 23/48/5
f 24/49/6 28/55/6 18/38/6
f 21/44/7 7/14/7 22/45/7
f 9/18/8 5/11/8 1/1/8
f 23/48/9 9/19/9 24/50/9
f 24/50/10 10/21/10 25/51/10
f 25/51/11 11/23/11 26/52/11
f 26/52/12 12/25/12 27/54/12
f 27/54/13 13/27/13 28/56/13
f 14/29/14 28/56/14 13/27/14
f 14/29/15 15/31/15 17/35/15
f 15/31/16 2/4/16 16/32/16
f 16/32/1 2/4/1 3/5/1
f 18/37/2 3/6/2 4/8/2
f 19/39/3 4/8/3 5/10/3
f 20/41/4 5/10/4 6/12/4
f 22/45/5 7/14/5 8/17/5
f 20/42/6 21/43/6 22/46/6
f 22/46/6 23/47/6 24/49/6
f 24/49/6 25/51/6 26/52/6
f 26/52/6 27/53/6 28/55/6
f 28/55/6 17/34/6 15/30/6
f 15/30/6 16/33/6 18/38/6
f 18/38/6 19/40/6 20/42/6
f 20/42/6 22/46/6 24/49/6
f 24/49/6 26/52/6 28/55/6
f 28/55/6 15/30/6 18/38/6
f 18/38/6 20/42/6 24/49/6
f 21/44/7 6/12/7 7/14/7
f 13/26/8 12/24/8 11/22/8
f 11/22/8 10/20/8 9/18/8
f 9/18/8 8/16/8 7/15/8
f 7/15/8 6/13/8 5/11/8
f 5/11/8 4/9/8 3/7/8
f 3/7/8 2/3/8 1/1/8
f 1/1/8 14/28/8 13/26/8
f 13/26/8 11/22/8 9/18/8
f 9/18/8 7/15/8 5/11/8
f 5/11/8 3/7/8 1/1/8
f 1/1/8 13/26/8 9/18/8
f 23/48/9 8/17/9 9/19/9
f 24/50/10 9/19/10 10/21/10
f 25/51/11 10/21/11 11/23/11
f 26/52/12 11/23/12 12/25/12
f 27/54/13 12/25/13 13/27/13
f 14/29/14 17/35/14 28/56/14
f 14/29/15 1/2/15 15/31/15
f 15/31/16 1/2/16 2/4/16
