# Blender 3.5.0
# www.blender.org
mtllib FrontLeftWheel.mtl
o Front_Left_Wheel
v 0.217598 -0.211725 0.257810
v 0.216609 -0.239188 0.284074
v 0.215189 -0.252528 0.319640
v 0.213621 -0.249103 0.357465
v 0.212215 -0.229592 0.390057
v 0.211250 -0.197858 0.410961
v 0.210916 -0.160188 0.416037
v 0.211280 -0.124041 0.404279
v 0.212269 -0.096579 0.378016
v 0.213689 -0.083239 0.342450
v 0.215257 -0.086664 0.304624
v 0.216663 -0.106175 0.272032
v 0.217628 -0.137909 0.251128
v 0.217962 -0.175579 0.246052
v 0.177680 -0.211858 0.256167
v 0.176690 -0.239321 0.282431
v 0.178043 -0.175712 0.244410
v 0.175270 -0.252661 0.317997
v 0.173702 -0.249236 0.355822
v 0.172296 -0.229724 0.388414
v 0.171331 -0.197991 0.409318
v 0.170997 -0.160320 0.414394
v 0.171361 -0.124174 0.402636
v 0.172350 -0.096711 0.376373
v 0.173770 -0.083371 0.340807
v 0.175338 -0.086796 0.302982
v 0.176744 -0.106307 0.270389
v 0.177709 -0.138041 0.249485
vn 0.0175 -0.9364 -0.3505
vn -0.0004 -0.9959 0.0902
vn -0.0183 -0.8582 0.5130
vn -0.0325 -0.5505 0.8342
vn -0.0401 0.3095 0.9501
vn -0.9991 -0.0033 -0.0411
vn -0.0403 -0.1338 0.9902
vn 0.9991 0.0033 0.0411
vn -0.0320 0.6914 0.7218
vn -0.0175 0.9364 0.3505
vn 0.0004 0.9959 -0.0902
vn 0.0183 0.8582 -0.5130
vn 0.0325 0.5505 -0.8342
vn 0.0403 0.1338 -0.9902
vn 0.0401 -0.3095 -0.9501
vn 0.0320 -0.6914 -0.7218
vt 0.493543 0.467957
vt 0.359472 0.503042
vt 0.361013 0.503212
vt 0.487304 0.455685
vt 0.362555 0.503381
vt 0.340976 0.501009
vt 0.479792 0.448769
vt 0.342517 0.501178
vt 0.472976 0.448579
vt 0.344058 0.501348
vt 0.467975 0.455153
vt 0.345600 0.501517
vt 0.465179 0.467188
vt 0.347141 0.501687
vt 0.464623 0.482300
vt 0.466241 0.497498
vt 0.348682 0.501856
vt 0.469943 0.509770
vt 0.350224 0.502026
vt 0.475522 0.516685
vt 0.351765 0.502195
vt 0.482427 0.516875
vt 0.353306 0.502364
vt 0.489462 0.510302
vt 0.354848 0.502534
vt 0.356389 0.502703
vt 0.494747 0.498267
vt 0.496365 0.483154
vt 0.357930 0.502873
vt 0.352734 0.459625
vt 0.356109 0.503942
vt 0.351417 0.448678
vt 0.357497 0.504111
vt 0.353362 0.473182
vt 0.354722 0.503772
vt 0.358884 0.504281
vt 0.339463 0.501909
vt 0.349882 0.442509
vt 0.340850 0.502078
vt 0.348532 0.442339
vt 0.342237 0.502247
vt 0.347570 0.448203
vt 0.347052 0.458939
vt 0.343624 0.502417
vt 0.345012 0.502586
vt 0.346972 0.472421
vt 0.347313 0.485978
vt 0.346399 0.502756
vt 0.348058 0.496925
vt 0.347786 0.502925
vt 0.349173 0.503095
vt 0.350561 0.503264
vt 0.351986 0.497400
vt 0.351948 0.503433
vt 0.353059 0.486664
vt 0.353335 0.503603
s 0
usemtl Wheels
f 16/33/1 3/5/1 18/36/1
f 19/39/2 3/6/2 4/8/2
f 19/39/3 5/10/3 20/41/3
f 21/44/4 5/10/4 6/12/4
f 23/48/5 7/14/5 8/17/5
f 24/49/6 28/55/6 18/38/6
f 21/44/7 7/14/7 22/45/7
f 9/18/8 5/11/8 1/1/8
f 23/48/9 9/19/9 24/50/9
f 25/51/10 9/19/10 10/21/10
f 25/51/11 11/23/11 26/52/11
f 27/54/12 11/23/12 12/25/12
f 28/56/13 12/25/13 13/26/13
f 14/29/14 28/56/14 13/26/14
f 17/35/15 1/2/15 15/31/15
f 16/33/16 1/2/16 2/3/16
f 16/33/1 2/3/1 3/5/1
f 19/39/2 18/37/2 3/6/2
f 19/39/3 4/8/3 5/10/3
f 21/44/4 20/41/4 5/10/4
f 23/48/5 22/45/5 7/14/5
f 20/42/6 21/43/6 22/46/6
f 22/46/6 23/47/6 24/49/6
f 24/49/6 25/51/6 26/52/6
f 26/52/6 27/53/6 28/55/6
f 28/55/6 17/34/6 15/30/6
f 15/30/6 16/32/6 18/38/6
f 18/38/6 19/40/6 20/42/6
f 20/42/6 22/46/6 24/49/6
f 24/49/6 26/52/6 28/55/6
f 28/55/6 15/30/6 18/38/6
f 18/38/6 20/42/6 24/49/6
f 21/44/7 6/12/7 7/14/7
f 13/27/8 12/24/8 11/22/8
f 11/22/8 10/20/8 9/18/8
f 9/18/8 8/16/8 7/15/8
f 7/15/8 6/13/8 5/11/8
f 5/11/8 4/9/8 3/7/8
f 3/7/8 2/4/8 1/1/8
f 1/1/8 14/28/8 13/27/8
f 13/27/8 11/22/8 9/18/8
f 9/18/8 7/15/8 5/11/8
f 5/11/8 3/7/8 1/1/8
f 1/1/8 13/27/8 9/18/8
f 23/48/9 8/17/9 9/19/9
f 25/51/10 24/50/10 9/19/10
f 25/51/11 10/21/11 11/23/11
f 27/54/12 26/52/12 11/23/12
f 28/56/13 27/54/13 12/25/13
f 14/29/14 17/35/14 28/56/14
f 17/35/15 14/29/15 1/2/15
f 16/33/16 15/31/16 1/2/16
