# Blender 3.5.0
# www.blender.org
mtllib FrontRightWheel.mtl
o Front_Right_Wheel
v -0.209150 -0.212994 0.256146
v -0.209426 -0.238814 0.283720
v -0.210474 -0.250122 0.319749
v -0.212087 -0.244680 0.357097
v -0.213945 -0.223565 0.388365
v -0.215681 -0.190959 0.407363
v -0.216950 -0.153320 0.410326
v -0.217501 -0.118104 0.396668
v -0.217226 -0.092284 0.369093
v -0.216178 -0.080976 0.333065
v -0.214565 -0.086418 0.295717
v -0.212707 -0.107533 0.264448
v -0.210971 -0.140139 0.245451
v -0.209702 -0.177778 0.242488
v -0.169493 -0.211778 0.257681
v -0.169769 -0.237597 0.285256
v -0.170045 -0.176561 0.244023
v -0.170817 -0.248906 0.321284
v -0.172430 -0.243464 0.358632
v -0.174288 -0.222348 0.389901
v -0.176024 -0.189742 0.408898
v -0.177293 -0.152104 0.411861
v -0.177845 -0.116887 0.398203
v -0.177569 -0.091068 0.370629
v -0.176521 -0.079760 0.334600
v -0.174908 -0.085202 0.297252
v -0.173050 -0.106317 0.265983
v -0.171314 -0.138923 0.246986
vn 0.0408 -0.9537 -0.2981
vn 0.0247 -0.9891 0.1452
vn 0.0037 -0.8286 0.5598
vn -0.0180 -0.5041 0.8635
vn -0.0471 0.3605 0.9315
vn 0.9988 0.0306 0.0387
vn -0.0361 -0.0796 0.9962
vn -0.9988 -0.0306 -0.0387
vn -0.0488 0.7293 0.6824
vn -0.0408 0.9537 0.2981
vn -0.0247 0.9891 -0.1452
vn -0.0037 0.8286 -0.5598
vn 0.0180 0.5041 -0.8635
vn 0.0361 0.0796 -0.9962
vn 0.0471 -0.3605 -0.9316
vn 0.0488 -0.7293 -0.6824
vn -0.0471 0.3606 0.9315
vt 0.702971 0.837415
vt 0.704087 0.611901
vt 0.704087 0.806254
vt 0.702971 0.834089
vt 0.704087 0.596951
vt 0.704087 0.791304
vt 0.701527 0.831091
vt 0.704087 0.776354
vt 0.698926 0.829017
vt 0.704087 0.761404
vt 0.695683 0.828277
vt 0.704087 0.746453
vt 0.692439 0.829017
vt 0.704087 0.731503
vt 0.689838 0.831091
vt 0.688395 0.834089
vt 0.704087 0.716553
vt 0.688395 0.837415
vt 0.704087 0.701602
vt 0.689838 0.840413
vt 0.704087 0.686652
vt 0.692439 0.842487
vt 0.704087 0.671702
vt 0.695683 0.843227
vt 0.704087 0.656752
vt 0.698926 0.842487
vt 0.704087 0.641802
vt 0.701527 0.840413
vt 0.704087 0.626851
vt 0.701391 0.813181
vt 0.689137 0.611901
vt 0.689137 0.806254
vt 0.689137 0.596951
vt 0.702835 0.816178
vt 0.698790 0.811107
vt 0.689137 0.626851
vt 0.689137 0.791304
vt 0.702835 0.819505
vt 0.689137 0.776354
vt 0.701391 0.822502
vt 0.689137 0.761404
vt 0.698790 0.824576
vt 0.689137 0.746453
vt 0.695547 0.825317
vt 0.692304 0.824576
vt 0.689137 0.731503
vt 0.689703 0.822502
vt 0.689137 0.716553
vt 0.688259 0.819505
vt 0.689137 0.701602
vt 0.688259 0.816178
vt 0.689137 0.686652
vt 0.689137 0.671702
vt 0.689703 0.813181
vt 0.692304 0.811107
vt 0.689137 0.656752
vt 0.695547 0.810367
vt 0.689137 0.641802
s 0
usemtl Wheels
f 18/37/1 2/3/1 16/32/1
f 19/39/2 3/6/2 18/37/2
f 20/41/3 4/8/3 19/39/3
f 6/12/4 20/41/4 21/43/4
f 8/17/5 22/46/5 23/48/5
f 18/38/6 28/57/6 24/49/6
f 22/46/7 6/12/7 21/43/7
f 1/1/8 5/11/8 9/18/8
f 9/19/9 23/48/9 24/50/9
f 10/21/10 24/50/10 25/52/10
f 11/23/11 25/52/11 26/53/11
f 27/56/12 11/23/12 26/53/12
f 13/27/13 27/56/13 28/58/13
f 28/58/14 14/29/14 13/27/14
f 15/31/15 14/29/15 17/36/15
f 2/5/16 15/31/16 16/33/16
f 18/37/1 3/6/1 2/3/1
f 19/39/2 4/8/2 3/6/2
f 20/41/3 5/10/3 4/8/3
f 6/12/4 5/10/4 20/41/4
f 8/17/17 7/14/17 22/46/17
f 22/45/6 21/44/6 20/42/6
f 20/42/6 19/40/6 18/38/6
f 18/38/6 16/34/6 15/30/6
f 15/30/6 17/35/6 28/57/6
f 28/57/6 27/55/6 26/54/6
f 26/54/6 25/51/6 24/49/6
f 24/49/6 23/47/6 22/45/6
f 22/45/6 20/42/6 18/38/6
f 18/38/6 15/30/6 28/57/6
f 28/57/6 26/54/6 24/49/6
f 24/49/6 22/45/6 18/38/6
f 22/46/7 7/14/7 6/12/7
f 11/22/8 12/24/8 13/26/8
f 13/26/8 14/28/8 1/1/8
f 1/1/8 2/4/8 3/7/8
f 3/7/8 4/9/8 5/11/8
f 5/11/8 6/13/8 7/15/8
f 7/15/8 8/16/8 9/18/8
f 9/18/8 10/20/8 11/22/8
f 11/22/8 13/26/8 1/1/8
f 1/1/8 3/7/8 5/11/8
f 5/11/8 7/15/8 9/18/8
f 9/18/8 11/22/8 1/1/8
f 9/19/9 8/17/9 23/48/9
f 10/21/10 9/19/10 24/50/10
f 11/23/11 10/21/11 25/52/11
f 27/56/12 12/25/12 11/23/12
f 13/27/13 12/25/13 27/56/13
f 28/58/14 17/36/14 14/29/14
f 15/31/15 1/2/15 14/29/15
f 2/5/16 1/2/16 15/31/16
